# xmcd
#
# Track frame offsets:
#	150
#	19770
#	39707
#	61257
#	86298
#	114320
#	133229
#	153511
#	175009
#	189489
#	215130
#	239017
#	266763
#
# Disc length: 4043 seconds
#
# Revision: 1
# Processed by: cddbd v1.5.2PL0 Copyright (c) Steve Scherf et al.
# Submitted via: audiograbber 1.83.01
#
DISCID=b70fc90d
DTITLE=Portico Quartet - Knee-Deep In The North Sea
DYEAR=2010
DGENRE=Jazz
TTITLE0=News From Verona
TTITLE1=(Something's Going Down On) Zavodoski's Island
TTITLE2=Knee-Deep In The North Sea
TTITLE3=Too Many Cooks
TTITLE4=Steps In The Wrong Direction
TTITLE5=Monsoon: Top To Bottom
TTITLE6=The Kon Tiki Expedition
TTITLE7=Cittàgazze
TTITLE8=Pompidou
TTITLE9=Prickly Pear
TTITLE10=All The Pieces Matter [live]
TTITLE11=Knee-Deep In The North Sea [live]
TTITLE12=Steps In The Wrong Direction [live]
EXTD=
EXTT0=
EXTT1=
EXTT2=
EXTT3=
EXTT4=
EXTT5=
EXTT6=
EXTT7=
EXTT8=
EXTT9=
EXTT10=
EXTT11=
EXTT12=
PLAYORDER=
